<svg version="1.1" id="Layer_1" xmlns="http://www.w3.org/2000/svg" xmlns:xlink="http://www.w3.org/1999/xlink" x="0px" y="0px"
	 viewBox="0 0 59.85 50" enable-background="new 0 0 59.85 50" xml:space="preserve">
<style>
	path.logo-line {
		fill: #1A1B1C;
	}
	@media(prefers-color-scheme: dark) {
		path.logo-line {
			fill: white;
		}
	}
</style>
<g>
	<g>
		<path class="logo-line" d="M59.82,25.48c-0.01,0.07-0.02,0.14-0.05,0.21c-0.07,0.28-0.24,0.53-0.48,0.73L46.36,36.76
			c-0.28,0.22-0.61,0.33-0.93,0.33c-0.44,0-0.88-0.2-1.18-0.57c-0.51-0.64-0.41-1.59,0.24-2.11l11.5-9.19l-3.27-2.61
			c0.68-1.09,0.77-2.44,0.29-3.61l6.28,5.02c0.24,0.2,0.41,0.46,0.48,0.74c0.03,0.07,0.04,0.14,0.05,0.21
			C59.86,25.14,59.86,25.31,59.82,25.48z"/>
	</g>
	<g>
		<path class="logo-line" d="M10.33,30.38c-0.36,1.19-0.44,2.45-0.22,3.68l-9.55-7.64c-0.2-0.16-0.33-0.37-0.41-0.59
			c-0.06-0.12-0.1-0.24-0.12-0.37c-0.04-0.16-0.04-0.32,0-0.48c0.02-0.13,0.06-0.25,0.12-0.37c0.08-0.22,0.21-0.43,0.41-0.59
			l12.93-10.33c0.65-0.52,1.59-0.42,2.11,0.23s0.41,1.59-0.23,2.11L3.86,25.22L10.33,30.38z"/>
	</g>
	<path class="logo-line" d="M54.3,6.7l-6.27-6.27C47.75,0.14,47.37,0,47,0c-0.38,0-0.75,0.14-1.04,0.43c-0.57,0.57-0.57,1.5,0,2.07
		l0.01,0.01l-6.28,6.28l-4.62-4.61c-0.28-0.29-0.66-0.43-1.03-0.43c-0.38,0-0.75,0.14-1.04,0.43c-0.57,0.57-0.57,1.5,0,2.07
		l1.83,1.83L14.07,28.84c-0.92,0.92-1.44,2.08-1.56,3.29c-0.1,1.12,0.14,2.26,0.72,3.26l-0.65,0.64l-1.16,1.16
		c-1.2,1.2-1.32,3.08-0.37,4.42L5.16,47.5c-0.57,0.57-0.57,1.5,0,2.07C5.44,49.86,5.82,50,6.19,50c0.38,0,0.75-0.14,1.04-0.43
		l5.88-5.88c0.61,0.46,1.34,0.69,2.07,0.69c0.88,0,1.76-0.34,2.42-1.01l1.83-1.82c0.82,0.46,1.73,0.69,2.64,0.69
		c1.39,0,2.77-0.53,3.82-1.58c0.67-0.68,20.22-20.22,20.76-20.76l1.66,1.66c0.29,0.29,0.66,0.43,1.04,0.43
		c0.37,0,0.75-0.14,1.03-0.43c0.16-0.16,0.28-0.35,0.34-0.55c0.19-0.51,0.08-1.11-0.34-1.52l-4.44-4.45l0.94-0.94l5.34-5.34
		c0.29,0.29,0.67,0.44,1.04,0.44c0.38,0,0.76-0.15,1.04-0.43C54.87,8.19,54.87,7.27,54.3,6.7z M15.53,41.3
		c-0.1,0.1-0.23,0.15-0.35,0.15c-0.13,0-0.26-0.05-0.36-0.15c-0.46-0.46-0.78-0.78-1.32-1.32c-0.2-0.2-0.2-0.52,0-0.71l1.68-1.68
		l2.03,2.03L15.53,41.3z M32.58,29.82l-1.64-1.64c-0.28-0.29-0.66-0.43-1.03-0.43c-0.38,0-0.75,0.14-1.04,0.43
		c-0.57,0.57-0.57,1.5,0,2.07l1.64,1.64L28.41,34l-1.56-1.56c-0.29-0.29-0.67-0.43-1.04-0.43c-0.38,0-0.75,0.14-1.04,0.43
		c-0.57,0.57-0.57,1.5,0,2.07l1.56,1.56l-2.51,2.52c-0.48,0.48-1.12,0.72-1.75,0.72s-1.27-0.24-1.75-0.72
		c-0.02-0.02-4.11-4.11-4.11-4.11s0,0-0.07-0.07c-0.96-0.97-0.96-2.54,0-3.5l10.8-10.8l7.67,7.68L32.58,29.82z M36.68,25.72
		l-7.67-7.68l7.89-7.89l7.68,7.68L36.68,25.72z M43.86,12.97l-2.1-2.11l6.28-6.28l2.11,2.11L43.86,12.97z"/>
	<g>
		<path fill="#55F5A5" d="M15.18,37.59l2.03,2.03l-1.68,1.68c-0.1,0.1-0.23,0.15-0.35,0.15c-0.13,0-0.26-0.05-0.36-0.15
			c-0.46-0.46-0.78-0.78-1.32-1.32c-0.2-0.2-0.2-0.52,0-0.71L15.18,37.59z"/>
		<path fill="#55F5A5" d="M34.61,27.79l-2.03,2.03l-1.64-1.64c-0.28-0.29-0.66-0.43-1.03-0.43c-0.38,0-0.75,0.14-1.04,0.43
			c-0.57,0.57-0.57,1.5,0,2.07l1.64,1.64L28.41,34l-1.56-1.56c-0.29-0.29-0.67-0.43-1.04-0.43c-0.38,0-0.75,0.14-1.04,0.43
			c-0.57,0.57-0.57,1.5,0,2.07l1.56,1.56l-2.51,2.52c-0.48,0.48-1.12,0.72-1.75,0.72s-1.27-0.24-1.75-0.72
			c-0.02-0.02-4.11-4.11-4.11-4.11s0,0-0.07-0.07c-0.96-0.97-0.96-2.54,0-3.5l10.8-10.8L34.61,27.79z"/>
	</g>
</g>
</svg>
