<svg xmlns="http://www.w3.org/2000/svg" width="22" height="19.895" viewBox="0 0 22 19.895"><defs><style>.a{fill:#fff;}</style></defs><path class="a" d="M23.413,20.7v.67a1.062,1.062,0,0,1-.9,1.052l-.165.608a.757.757,0,0,1-.731.561H19.979a.757.757,0,0,1-.731-.561l-.16-.608a1.067,1.067,0,0,1-.906-1.057V20.7a.644.644,0,0,1,.646-.646h3.939A.651.651,0,0,1,23.413,20.7Zm3.033-9.028a5.619,5.619,0,0,1-1.585,3.92,5.179,5.179,0,0,0-1.387,2.811.934.934,0,0,1-.925.788h-3.5a.925.925,0,0,1-.92-.783,5.236,5.236,0,0,0-1.4-2.821,5.647,5.647,0,1,1,9.717-3.915Zm-5.009-3.42a.637.637,0,0,0-.637-.637,4.08,4.08,0,0,0-4.075,4.075.637.637,0,1,0,1.274,0,2.805,2.805,0,0,1,2.8-2.8A.634.634,0,0,0,21.437,8.256ZM13.3,11.671a.637.637,0,0,0-.637-.637H10.437a.637.637,0,1,0,0,1.274h2.231A.634.634,0,0,0,13.3,11.671Zm17.858-.637H28.932a.637.637,0,0,0,0,1.274h2.231a.637.637,0,1,0,0-1.274ZM14.6,16.973l-1.58,1.58a.635.635,0,0,0,.9.9l1.58-1.58a.635.635,0,0,0-.9-.9ZM26.55,6.558A.636.636,0,0,0,27,6.374l1.58-1.58a.637.637,0,0,0-.9-.9L26.1,5.473a.635.635,0,0,0,0,.9A.647.647,0,0,0,26.55,6.558ZM14.6,6.369a.635.635,0,0,0,.9-.9l-1.58-1.58a.637.637,0,0,0-.9.9ZM27,16.973a.637.637,0,0,0-.9.9l1.58,1.58a.635.635,0,0,0,.9-.9Z" transform="translate(-9.8 -3.7)"/></svg>