<svg xmlns="http://www.w3.org/2000/svg" width="200.139" height="50" viewBox="0 0 200.139 50"><defs><style>.a{fill:#1a1b1c;}.b{fill:#55f5a5;}</style></defs><path class="a" d="M88.138,41.28a11.253,11.253,0,0,1-4.4-.78,8.426,8.426,0,0,1-2.82-1.8,2.818,2.818,0,0,1-.98-1.74,1.527,1.527,0,0,1,.18-.68,1.666,1.666,0,0,1,.46-.58.908.908,0,0,1,.56-.22,1.137,1.137,0,0,1,.82.5,14.119,14.119,0,0,0,1.12,1.159,6.329,6.329,0,0,0,1.86,1.16,7.758,7.758,0,0,0,3.04.5,7.615,7.615,0,0,0,3.22-.62,4.423,4.423,0,0,0,2.04-1.84,6.082,6.082,0,0,0,.7-3.06,5.9,5.9,0,0,0-.72-3.1,5.83,5.83,0,0,0-1.9-1.92,14.943,14.943,0,0,0-2.58-1.279q-1.4-.54-2.82-1.08a12.007,12.007,0,0,1-2.6-1.36,6.266,6.266,0,0,1-1.92-2.16,7.015,7.015,0,0,1-.74-3.42,7.193,7.193,0,0,1,.8-3.6,6.169,6.169,0,0,1,2.06-2.2,8.749,8.749,0,0,1,2.74-1.141,12.875,12.875,0,0,1,2.88-.34,15.259,15.259,0,0,1,2.3.181,14.112,14.112,0,0,1,2.18.5,5.972,5.972,0,0,1,1.62.76,1.239,1.239,0,0,1,.62,1,1.647,1.647,0,0,1-.14.62,2,2,0,0,1-.38.6.828.828,0,0,1-.64.26,2.184,2.184,0,0,1-1-.38,9.787,9.787,0,0,0-1.74-.76,8.952,8.952,0,0,0-2.86-.38,9.239,9.239,0,0,0-2.78.42,4.555,4.555,0,0,0-2.18,1.42,4.229,4.229,0,0,0-.84,2.8,4.173,4.173,0,0,0,.74,2.58,5.441,5.441,0,0,0,1.92,1.58,22.083,22.083,0,0,0,2.58,1.1q1.4.5,2.82,1.119a11.678,11.678,0,0,1,2.6,1.561,6.812,6.812,0,0,1,1.9,2.46,9.194,9.194,0,0,1,.72,3.92A9.026,9.026,0,0,1,95.5,37.7a6.64,6.64,0,0,1-2.98,2.7A10.314,10.314,0,0,1,88.138,41.28Z"/><path class="a" d="M107.018,41a7.068,7.068,0,0,1-4.72-1.4,5.579,5.579,0,0,1-1.64-4.479V14.04a.793.793,0,0,1,.42-.7,1.616,1.616,0,0,1,.86-.26,1.655,1.655,0,0,1,.92.26.8.8,0,0,1,.4.7v8.04h5.2a.761.761,0,0,1,.64.32,1.323,1.323,0,0,1,0,1.52.759.759,0,0,1-.64.32h-5.2V35.12a3.635,3.635,0,0,0,.84,2.74,4.28,4.28,0,0,0,2.92.779h1.12a1.086,1.086,0,0,1,.86.341,1.2,1.2,0,0,1,.3.819,1.276,1.276,0,0,1-.3.84,1.057,1.057,0,0,1-.86.36Z"/><path class="a" d="M120.1,41.28a9.929,9.929,0,0,1-4.46-.96,7.489,7.489,0,0,1-3.04-2.66,7.165,7.165,0,0,1-1.1-3.98V29.2a6.865,6.865,0,0,1,1.04-3.681,7.774,7.774,0,0,1,2.78-2.68,7.64,7.64,0,0,1,10.259,2.52,6.875,6.875,0,0,1,1.04,3.76,3.643,3.643,0,0,1-.521,2.22,2.168,2.168,0,0,1-1.3.82,8.3,8.3,0,0,1-1.66.16H114.1V33.8a4.635,4.635,0,0,0,1.721,3.8,6.671,6.671,0,0,0,4.359,1.4,6.149,6.149,0,0,0,2.48-.4,6.62,6.62,0,0,0,1.38-.8,1.542,1.542,0,0,1,.939-.4.874.874,0,0,1,.58.22,1.565,1.565,0,0,1,.4.5,1.178,1.178,0,0,1,.14.52c0,.294-.239.654-.72,1.08a6.032,6.032,0,0,1-2.08,1.1A10.047,10.047,0,0,1,120.1,41.28Zm-6-10.88h8a3.279,3.279,0,0,0,1.6-.261,1.234,1.234,0,0,0,.4-1.1,5.1,5.1,0,0,0-.62-2.44,4.973,4.973,0,0,0-1.76-1.88A4.812,4.812,0,0,0,119.1,24a4.906,4.906,0,0,0-2.5.66,5.1,5.1,0,0,0-1.819,1.76,4.58,4.58,0,0,0-.681,2.46S114.1,30.4,114.1,30.4Z"/><path class="a" d="M131.778,41a1.35,1.35,0,0,1-.9-.32.931.931,0,0,1-.38-.72V23.04a.81.81,0,0,1,.38-.7,1.56,1.56,0,0,1,.9-.26,1.467,1.467,0,0,1,.88.26.821.821,0,0,1,.36.7V25a6.381,6.381,0,0,1,3-2.7,5.783,5.783,0,0,1,2.359-.46h1.4a.951.951,0,0,1,.74.34,1.256,1.256,0,0,1,.3.86,1.272,1.272,0,0,1-.3.84.928.928,0,0,1-.74.36h-1.4a5.03,5.03,0,0,0-2.54.7,5.374,5.374,0,0,0-1.979,2,6.114,6.114,0,0,0-.76,3.14v9.88a.931.931,0,0,1-.38.72A1.4,1.4,0,0,1,131.778,41Z"/><path class="a" d="M149.738,41.28a7.027,7.027,0,0,1-3.76-1.061,8.319,8.319,0,0,1-2.78-2.8,7.06,7.06,0,0,1-1.061-3.74V29.32a6.965,6.965,0,0,1,1.04-3.7,8.1,8.1,0,0,1,2.761-2.74,7.2,7.2,0,0,1,3.8-1.04,7.335,7.335,0,0,1,3.78,1.021,7.941,7.941,0,0,1,2.779,2.7,7,7,0,0,1,1.04,3.761V33.68A7.2,7.2,0,0,1,156.3,37.4a8.033,8.033,0,0,1-2.779,2.819A7.13,7.13,0,0,1,149.738,41.28Zm0-2.4a4.466,4.466,0,0,0,2.52-.74,5.6,5.6,0,0,0,1.8-1.939,5.045,5.045,0,0,0,.68-2.521V29.32a4.859,4.859,0,0,0-.66-2.44,5.451,5.451,0,0,0-1.8-1.9,4.569,4.569,0,0,0-2.54-.74,4.477,4.477,0,0,0-2.521.74,5.707,5.707,0,0,0-1.8,1.9,4.756,4.756,0,0,0-.68,2.44v4.359a5.045,5.045,0,0,0,.68,2.521,5.523,5.523,0,0,0,1.82,1.939A4.481,4.481,0,0,0,149.738,38.88Z"/><path class="a" d="M162.9,16.48a1.725,1.725,0,0,1-1.239-.5,1.586,1.586,0,0,1-.521-1.181,1.522,1.522,0,0,1,.521-1.16,1.87,1.87,0,0,1,2.5,0,1.551,1.551,0,0,1,.5,1.16,1.617,1.617,0,0,1-.5,1.181A1.712,1.712,0,0,1,162.9,16.48Zm0,24.52a1.346,1.346,0,0,1-.9-.32.928.928,0,0,1-.38-.72V23.04a.808.808,0,0,1,.38-.7,1.555,1.555,0,0,1,.9-.26,1.626,1.626,0,0,1,.94.26.81.81,0,0,1,.38.7V39.96a.931.931,0,0,1-.38.72A1.406,1.406,0,0,1,162.9,41Z"/><path class="a" d="M175.577,41.28a6.366,6.366,0,0,1-3.52-1.061,7.871,7.871,0,0,1-3.561-6.54V29.32a7.445,7.445,0,0,1,.96-3.761,7.534,7.534,0,0,1,2.6-2.7,6.675,6.675,0,0,1,3.6-1.021,5.6,5.6,0,0,1,3.3.94,6.355,6.355,0,0,1,1.98,2.1V11.44a.8.8,0,0,1,.4-.7,1.64,1.64,0,0,1,.92-.26,1.508,1.508,0,0,1,.939.26.837.837,0,0,1,.34.7V39.96a.967.967,0,0,1-.34.72,1.314,1.314,0,0,1-.939.32,1.22,1.22,0,0,1-.84-.32.947.947,0,0,1-.36-.72V38.2a5.61,5.61,0,0,1-2.14,2.16A6.267,6.267,0,0,1,175.577,41.28Zm.44-2.4a4.437,4.437,0,0,0,2.54-.74,6.36,6.36,0,0,0,1.74-1.68,3,3,0,0,0,.64-1.54v-5.6a4.931,4.931,0,0,0-.72-2.721,5.11,5.11,0,0,0-1.84-1.739,4.737,4.737,0,0,0-2.32-.62,4.406,4.406,0,0,0-2.48.74,5.707,5.707,0,0,0-1.8,1.9,4.756,4.756,0,0,0-.68,2.44v4.359a5.045,5.045,0,0,0,.68,2.521,5.587,5.587,0,0,0,1.8,1.939A4.32,4.32,0,0,0,176.017,38.88Z"/><path class="a" d="M193.7,41.28a10.118,10.118,0,0,1-3.28-.48,7,7,0,0,1-2.2-1.14,1.771,1.771,0,0,1-.8-1.26,1.276,1.276,0,0,1,.12-.54,1.419,1.419,0,0,1,.34-.46.678.678,0,0,1,.46-.2,1.585,1.585,0,0,1,.98.46,7.316,7.316,0,0,0,1.52.939,6.467,6.467,0,0,0,2.78.48,4.663,4.663,0,0,0,3.2-.86,2.638,2.638,0,0,0,.92-1.979,2.882,2.882,0,0,0-.7-2.061,4.741,4.741,0,0,0-1.84-1.16q-1.14-.418-2.4-.76a14.168,14.168,0,0,1-2.4-.88,4.745,4.745,0,0,1-1.84-1.5,4.323,4.323,0,0,1-.7-2.6,5.553,5.553,0,0,1,.64-2.54,5.125,5.125,0,0,1,2.021-2.08,7.118,7.118,0,0,1,3.66-.82,11.636,11.636,0,0,1,2.56.28,7.117,7.117,0,0,1,2.021.74q.78.46.779.939a1.39,1.39,0,0,1-.14.521,2.092,2.092,0,0,1-.38.58.739.739,0,0,1-.561.26,1.943,1.943,0,0,1-.859-.3,7.4,7.4,0,0,0-1.38-.561,6.826,6.826,0,0,0-2-.26,4.535,4.535,0,0,0-2.32.52,3.435,3.435,0,0,0-1.28,1.221,2.775,2.775,0,0,0-.4,1.38,2.159,2.159,0,0,0,.72,1.76,5.67,5.67,0,0,0,1.86.98q1.14.38,2.4.72a11.751,11.751,0,0,1,2.4.939,4.845,4.845,0,0,1,1.84,1.681,5.237,5.237,0,0,1,.7,2.88,4.643,4.643,0,0,1-1.681,3.76A7.242,7.242,0,0,1,193.7,41.28Z"/><path class="a" d="M59.82,25.48a.8.8,0,0,1-.05.21,1.4,1.4,0,0,1-.48.73L46.36,36.76a1.5,1.5,0,1,1-1.87-2.35l11.5-9.19-3.27-2.61A3.978,3.978,0,0,0,53.01,19l6.28,5.02a1.427,1.427,0,0,1,.48.74.8.8,0,0,1,.05.21A1.1,1.1,0,0,1,59.82,25.48Z"/><path class="a" d="M10.33,30.38a7.9,7.9,0,0,0-.22,3.68L.56,26.42a1.32,1.32,0,0,1-.41-.59,1.234,1.234,0,0,1-.12-.37.975.975,0,0,1,0-.48,1.234,1.234,0,0,1,.12-.37,1.32,1.32,0,0,1,.41-.59L13.49,13.69a1.5,1.5,0,0,1,1.88,2.34L3.86,25.22Z"/><path class="a" d="M54.3,6.7,48.03.43A1.43,1.43,0,0,0,47,0a1.465,1.465,0,0,0-1.04,2.5l.01.01L39.69,8.79,35.07,4.18a1.43,1.43,0,0,0-1.03-.43A1.465,1.465,0,0,0,33,6.25l1.83,1.83L14.07,28.84a5.374,5.374,0,0,0-1.56,3.29,5.515,5.515,0,0,0,.72,3.26l-.65.64-1.16,1.16a3.448,3.448,0,0,0-.37,4.42L5.16,47.5a1.467,1.467,0,0,0,0,2.07A1.43,1.43,0,0,0,6.19,50a1.452,1.452,0,0,0,1.04-.43l5.88-5.88a3.434,3.434,0,0,0,2.07.69,3.391,3.391,0,0,0,2.42-1.01l1.83-1.82a5.4,5.4,0,0,0,6.46-.89c.67-.68,20.22-20.22,20.76-20.76l1.66,1.66a1.452,1.452,0,0,0,1.04.43,1.43,1.43,0,0,0,1.03-.43,1.333,1.333,0,0,0,.34-.55,1.426,1.426,0,0,0-.34-1.52l-4.44-4.45.94-.94,5.34-5.34A1.464,1.464,0,1,0,54.3,6.7ZM15.53,41.3a.5.5,0,0,1-.35.15.507.507,0,0,1-.36-.15L13.5,39.98a.5.5,0,0,1,0-.71l1.68-1.68,2.03,2.03ZM32.58,29.82l-1.64-1.64a1.43,1.43,0,0,0-1.03-.43,1.465,1.465,0,0,0-1.04,2.5l1.64,1.64L28.41,34l-1.56-1.56a1.469,1.469,0,0,0-1.04-.43,1.465,1.465,0,0,0-1.04,2.5l1.56,1.56-2.51,2.52a2.487,2.487,0,0,1-3.5,0l-4.11-4.11-.07-.07a2.487,2.487,0,0,1,0-3.5l10.8-10.8,7.67,7.68Zm4.1-4.1-7.67-7.68,7.89-7.89,7.68,7.68Zm7.18-12.75-2.1-2.11,6.28-6.28,2.11,2.11Z"/><path class="b" d="M15.18,37.59l2.03,2.03L15.53,41.3a.5.5,0,0,1-.35.15.507.507,0,0,1-.36-.15L13.5,39.98a.5.5,0,0,1,0-.71Z"/><path class="b" d="M34.61,27.79l-2.03,2.03-1.64-1.64a1.43,1.43,0,0,0-1.03-.43,1.465,1.465,0,0,0-1.04,2.5l1.64,1.64L28.41,34l-1.56-1.56a1.469,1.469,0,0,0-1.04-.43,1.465,1.465,0,0,0-1.04,2.5l1.56,1.56-2.51,2.52a2.487,2.487,0,0,1-3.5,0l-4.11-4.11-.07-.07a2.487,2.487,0,0,1,0-3.5l10.8-10.8Z"/></svg>